<svg xmlns="http://www.w3.org/2000/svg" width="566.156" height="588.6" viewBox="0 0 566.156 588.6">
  <g id="pdf-file-format-symbol" transform="translate(-11.222)">
    <path id="Path_13040" data-name="Path 13040" d="M162.643,247.5a50.758,50.758,0,0,0-11.549,1.213V324.49a46.074,46.074,0,0,0,8.849.68c23.382.623,38.908-12.413,38.908-40.666C199.019,259.933,184.886,247.164,162.643,247.5Z" fill="#e24c3f"/>
    <path id="Path_13041" data-name="Path 13041" d="M359.036,537.78c.771.042,1.551.111,2.342.111h178.2a37.847,37.847,0,0,0,37.8-37.8V86.994a37.848,37.848,0,0,0-37.8-37.8h-178.2c-.786,0-1.571.077-2.342.113V0L11.222,46.417V540.981L359.036,588.6ZM539.578,516.3h-178.2a15.808,15.808,0,0,1-2.342-.242V353.979c37.131-6.417,88.694-11.274,133.292-.8l5.278,10.235c21.289,40.253,44.028,39.989,52.813,38.006a16.763,16.763,0,0,0,3.1-.959l1.182-.628c.4-.253.712-.575,1.075-.849V500.1A16.221,16.221,0,0,1,539.578,516.3ZM374.15,334.768c27.906-34.034,50.456-65.807,64.979-87.325l.053.119.158-.243c11.4,24.036,30.2,61.214,43.137,86.59l-.042-.011.443.85c-36.8-6.286-76.312-3.992-108.812.5l.475-.554Zm65.644-158.81c1.118-1.972,2.753-2.494,5.685-2.365.053.005,5.875.387,8.047,4.375,1.318,2.375,3.228,9.908-7.045,28.278h-.011s-1.329,2.21-3.828,6.2C436.883,192.222,437.263,180.413,439.794,175.958Zm74.313,183.854a127.52,127.52,0,0,1,28.339,14.981c2.384,3.386,4.588,8.259,4.188,10.558a1.009,1.009,0,0,1-.1.332C543.121,386.311,529.568,386.733,514.107,359.812ZM361.378,70.8h178.2a16.219,16.219,0,0,1,16.2,16.2V365.612c-.506-.723-.943-1.318-1.2-1.64l-.686-.887-.9-.664c-13.827-10.094-30.491-17.872-49.581-23.129-13.61-26.578-41.8-81.974-53.646-107.916,6.861-10.568,10.547-16.728,10.716-17.01,10.689-19.056,13.025-33.932,7.114-44.426-5.358-9.5-16.031-12.351-21.484-12.532-8.817-.4-16.337,3.37-20.419,10.552-6.223,10.966-4.936,30.175,3.86,57.056.391,1.242,1.018,2.834,1.846,4.838a1176.2,1176.2,0,0,1-72.367,97.767V71.036A15.979,15.979,0,0,1,361.378,70.8ZM100.311,290.957C92.087,299.115,80,302.675,66.044,302.548a55.608,55.608,0,0,1-7.986-.569v39.7l-22.842-.633V232.659c7.056-1.469,17.041-2.689,31.292-3.035,14.562-.356,25.109,2.4,32.221,8.277,6.858,5.579,11.485,14.958,11.485,26.087S106.694,284.573,100.311,290.957Zm107.238,40.758c-12.337,10.066-30.881,14.454-53.135,13.832a211.73,211.73,0,0,1-28.506-2.5V230.563a219.122,219.122,0,0,1,34.035-3.2c21.676-.53,35.955,3.159,47.271,11.538,12.287,8.98,20.084,23.6,20.084,44.745C227.3,306.566,218.977,322.233,207.549,331.715Zm37.7-105.521,76.842-1.835v23.106l-48.877.709v27.891l45.628-.113v22.884l-45.628-.316v49.1l-27.973-.771V226.2h.008Z" fill="#e24c3f"/>
    <path id="Path_13042" data-name="Path 13042" d="M67.745,248.622a37.306,37.306,0,0,0-9.683,1.139v32.777a33,33,0,0,0,7.834.665c12.551.01,20.363-6.837,20.363-18.344C86.26,254.506,79.534,248.432,67.745,248.622Z" fill="#e24c3f"/>
  </g>
</svg>
